<mxfile host="app.diagrams.net" modified="2022-09-21T01:20:58.285Z" agent="5.0 (Windows NT 10.0; Win64; x64) AppleWebKit/537.36 (KHTML, like Gecko) Chrome/105.0.0.0 Safari/537.36" etag="cSVF2kOs9thBdDJfDHPq" version="20.3.2" type="github">
  <diagram id="VRlDe-krlpQUXCqQqY48" name="第 1 页">
    <mxGraphModel dx="2062" dy="1122" grid="1" gridSize="10" guides="1" tooltips="1" connect="1" arrows="1" fold="1" page="1" pageScale="1" pageWidth="1169" pageHeight="827" math="0" shadow="0">
      <root>
        <mxCell id="0" />
        <mxCell id="1" parent="0" />
        <mxCell id="6On4YraI16OBijg7A7OW-12" value="DAO" style="rounded=0;whiteSpace=wrap;html=1;" vertex="1" parent="1">
          <mxGeometry x="160" y="140" width="400" height="60" as="geometry" />
        </mxCell>
        <mxCell id="6On4YraI16OBijg7A7OW-14" value="" style="shape=flexArrow;endArrow=classic;html=1;rounded=0;exitX=0.5;exitY=1;exitDx=0;exitDy=0;entryX=0.5;entryY=0;entryDx=0;entryDy=0;" edge="1" parent="1" source="6On4YraI16OBijg7A7OW-12" target="6On4YraI16OBijg7A7OW-15">
          <mxGeometry width="50" height="50" relative="1" as="geometry">
            <mxPoint x="560" y="400" as="sourcePoint" />
            <mxPoint x="410" y="310" as="targetPoint" />
          </mxGeometry>
        </mxCell>
        <mxCell id="6On4YraI16OBijg7A7OW-16" value="Insert/Add" style="edgeLabel;html=1;align=center;verticalAlign=middle;resizable=0;points=[];" vertex="1" connectable="0" parent="6On4YraI16OBijg7A7OW-14">
          <mxGeometry x="-0.26" y="-2" relative="1" as="geometry">
            <mxPoint as="offset" />
          </mxGeometry>
        </mxCell>
        <mxCell id="6On4YraI16OBijg7A7OW-15" value="Interceptor（AES encrypt）" style="rounded=0;whiteSpace=wrap;html=1;" vertex="1" parent="1">
          <mxGeometry x="160" y="300" width="400" height="60" as="geometry" />
        </mxCell>
        <mxCell id="6On4YraI16OBijg7A7OW-17" value="" style="shape=cylinder3;whiteSpace=wrap;html=1;boundedLbl=1;backgroundOutline=1;size=15;" vertex="1" parent="1">
          <mxGeometry x="160" y="450" width="400" height="80" as="geometry" />
        </mxCell>
        <object label="" id="6On4YraI16OBijg7A7OW-19">
          <mxCell style="shape=flexArrow;endArrow=classic;html=1;rounded=0;exitX=0.5;exitY=1;exitDx=0;exitDy=0;entryX=0.5;entryY=0;entryDx=0;entryDy=0;entryPerimeter=0;" edge="1" parent="1" source="6On4YraI16OBijg7A7OW-15" target="6On4YraI16OBijg7A7OW-17">
            <mxGeometry width="50" height="50" relative="1" as="geometry">
              <mxPoint x="640" y="440" as="sourcePoint" />
              <mxPoint x="690" y="390" as="targetPoint" />
            </mxGeometry>
          </mxCell>
        </object>
        <mxCell id="6On4YraI16OBijg7A7OW-21" value="Save to DB" style="edgeLabel;html=1;align=center;verticalAlign=middle;resizable=0;points=[];" vertex="1" connectable="0" parent="6On4YraI16OBijg7A7OW-19">
          <mxGeometry x="0.2667" y="4" relative="1" as="geometry">
            <mxPoint x="-4" y="-7" as="offset" />
          </mxGeometry>
        </mxCell>
        <mxCell id="6On4YraI16OBijg7A7OW-22" value="DAO" style="rounded=0;whiteSpace=wrap;html=1;" vertex="1" parent="1">
          <mxGeometry x="640" y="140" width="400" height="60" as="geometry" />
        </mxCell>
        <mxCell id="6On4YraI16OBijg7A7OW-23" value="" style="shape=flexArrow;endArrow=classic;html=1;rounded=0;exitX=0.5;exitY=0;exitDx=0;exitDy=0;entryX=0.75;entryY=1;entryDx=0;entryDy=0;" edge="1" parent="1" source="6On4YraI16OBijg7A7OW-25" target="6On4YraI16OBijg7A7OW-22">
          <mxGeometry width="50" height="50" relative="1" as="geometry">
            <mxPoint x="1040" y="400" as="sourcePoint" />
            <mxPoint x="1100" y="200" as="targetPoint" />
          </mxGeometry>
        </mxCell>
        <mxCell id="6On4YraI16OBijg7A7OW-24" value="Query" style="edgeLabel;html=1;align=center;verticalAlign=middle;resizable=0;points=[];" vertex="1" connectable="0" parent="6On4YraI16OBijg7A7OW-23">
          <mxGeometry x="-0.26" y="-2" relative="1" as="geometry">
            <mxPoint as="offset" />
          </mxGeometry>
        </mxCell>
        <mxCell id="6On4YraI16OBijg7A7OW-25" value="Interceptor（AES decrypt）" style="rounded=0;whiteSpace=wrap;html=1;" vertex="1" parent="1">
          <mxGeometry x="840" y="300" width="200" height="60" as="geometry" />
        </mxCell>
        <mxCell id="6On4YraI16OBijg7A7OW-26" value="" style="shape=cylinder3;whiteSpace=wrap;html=1;boundedLbl=1;backgroundOutline=1;size=15;" vertex="1" parent="1">
          <mxGeometry x="640" y="450" width="400" height="80" as="geometry" />
        </mxCell>
        <object label="" id="6On4YraI16OBijg7A7OW-27">
          <mxCell style="shape=flexArrow;endArrow=classic;html=1;rounded=0;entryX=0.5;entryY=1;entryDx=0;entryDy=0;" edge="1" parent="1" target="6On4YraI16OBijg7A7OW-25">
            <mxGeometry width="50" height="50" relative="1" as="geometry">
              <mxPoint x="940" y="450" as="sourcePoint" />
              <mxPoint x="1080" y="380" as="targetPoint" />
            </mxGeometry>
          </mxCell>
        </object>
        <mxCell id="6On4YraI16OBijg7A7OW-28" value="Result from DB" style="edgeLabel;html=1;align=center;verticalAlign=middle;resizable=0;points=[];" vertex="1" connectable="0" parent="6On4YraI16OBijg7A7OW-27">
          <mxGeometry x="0.2667" y="4" relative="1" as="geometry">
            <mxPoint x="4" y="17" as="offset" />
          </mxGeometry>
        </mxCell>
        <mxCell id="6On4YraI16OBijg7A7OW-29" value="" style="shape=flexArrow;endArrow=classic;html=1;rounded=0;exitX=0.5;exitY=1;exitDx=0;exitDy=0;" edge="1" parent="1">
          <mxGeometry width="50" height="50" relative="1" as="geometry">
            <mxPoint x="720" y="200" as="sourcePoint" />
            <mxPoint x="720" y="450" as="targetPoint" />
          </mxGeometry>
        </mxCell>
        <mxCell id="6On4YraI16OBijg7A7OW-30" value="Query" style="edgeLabel;html=1;align=center;verticalAlign=middle;resizable=0;points=[];" vertex="1" connectable="0" parent="6On4YraI16OBijg7A7OW-29">
          <mxGeometry x="-0.26" y="-2" relative="1" as="geometry">
            <mxPoint as="offset" />
          </mxGeometry>
        </mxCell>
      </root>
    </mxGraphModel>
  </diagram>
</mxfile>
